# xmcd
#
# Track frame offsets:
# 150
# 19181
# 43343
# 61301
#
# Disc length: 1090 seconds
#
#
# Revision: 0
# Processed by: cddbd v1.5.1PL0 Copyright (c) Steve Scherf et al.
# Submitted via: FreeRIP 2.90 
#
DISCID=31044004
DTITLE=Littleman - Sink Where You Stand
DYEAR=2002
DGENRE=
TTITLE0=Wirlwind
TTITLE1=Buddah
TTITLE2=Winter
TTITLE3=A Curious Thing
EXTD=YR-0011\nwww.littlemanweb.com\n
EXTT0=
EXTT1=
EXTT2=
EXTT3=
PLAYORDER=
